<svg version="1.1" id="Layer_1" xmlns="http://www.w3.org/2000/svg" xmlns:xlink="http://www.w3.org/1999/xlink" x="0px" y="0px"
	 width="100%" viewBox="0 0 432 288" enable-background="new 0 0 432 288" xml:space="preserve">
<path fill="#000000" opacity="1.000000" stroke="none" 
	d="
M170.329987,185.858429 
	C165.592377,184.748306 161.907227,182.882355 159.316757,178.958435 
	C157.588867,176.341125 154.836670,175.161407 151.600571,175.040909 
	C146.285141,174.843018 144.071930,173.033325 144.927231,167.912079 
	C145.765015,162.895813 144.308640,158.456802 143.725662,153.741440 
	C142.726379,145.659103 143.502426,137.846603 146.250839,129.883087 
	C149.074890,121.700363 153.059570,114.314308 158.553314,108.037567 
	C162.206696,103.863495 163.949005,98.427704 168.451965,94.906548 
	C171.154160,92.793533 173.590866,92.052055 176.631668,93.681946 
	C181.131668,96.093964 186.228912,97.501068 189.596558,101.789825 
	C191.381699,104.063263 193.707077,104.179955 196.329819,103.043694 
	C203.821854,99.797897 211.502426,102.405998 218.726334,103.650406 
	C223.235367,104.427139 226.371811,110.174866 227.079590,115.200310 
	C228.152298,122.816864 229.997467,130.194092 232.189819,137.505829 
	C235.213699,147.590775 232.067886,153.567947 221.973053,156.411316 
	C210.529907,159.634460 208.983887,162.184097 211.427216,173.944199 
	C211.817551,175.822983 212.317062,177.564545 209.684418,178.261047 
	C199.421844,180.976089 189.156845,183.685745 178.934647,186.547104 
	C176.043335,187.356430 173.374451,187.305832 170.329987,185.858429 
z"/>
<path fill="#000000" opacity="1.000000" stroke="none" 
	d="
M233.741364,178.897095 
	C230.641830,177.514664 228.040985,176.389832 224.769348,177.391266 
	C222.394424,178.118256 219.207840,179.680267 217.395920,176.878281 
	C215.268890,173.589066 214.615280,169.467255 216.464615,165.895538 
	C218.370667,162.214264 221.029510,158.714661 226.139679,159.558258 
	C228.448624,159.939423 229.886444,158.660477 231.349197,157.234741 
	C234.118149,154.535858 237.137390,152.865662 241.231781,154.324646 
	C243.226944,155.035614 245.315018,154.485825 246.662567,152.780548 
	C248.138031,150.913437 246.536346,149.274643 245.665329,147.792572 
	C243.139893,143.495453 240.570251,139.212708 237.777283,135.087250 
	C234.056671,129.591583 233.855423,123.211769 232.829895,117.024658 
	C232.692352,116.194946 242.892426,100.720207 243.683334,100.490944 
	C244.155319,100.354126 244.769485,100.100861 245.131042,100.280266 
	C251.588867,103.484550 255.560135,98.164368 260.342377,95.805313 
	C262.983063,94.502670 265.229156,92.603546 267.006348,96.947029 
	C268.086395,99.586662 270.432831,98.110527 272.250519,97.589371 
	C283.582794,94.340286 294.861969,90.928253 305.913147,86.790947 
	C307.500000,86.196869 309.266998,85.057907 311.233917,86.592621 
	C308.955322,92.708511 306.374573,98.552597 300.903290,102.716248 
	C298.956818,104.197517 297.381592,106.248146 295.893402,108.231369 
	C293.548950,111.355690 290.337067,112.566238 286.719330,112.234070 
	C280.783325,111.689049 275.597839,113.243935 270.618011,116.392868 
	C267.766632,118.195892 267.501068,120.078552 269.355652,122.520584 
	C275.241486,130.270813 280.217438,139.088089 287.410797,145.349518 
	C293.094666,150.297028 295.345856,156.510590 298.826874,162.321884 
	C301.879883,167.418610 300.659668,170.229462 295.539124,173.370972 
	C291.247589,176.003891 287.203735,179.040298 283.047272,181.893784 
	C282.365814,182.361649 281.714447,183.103989 280.972656,183.216934 
	C274.867004,184.146606 269.027527,185.569763 264.256744,189.927231 
	C263.354706,190.751114 261.384857,190.762421 260.477905,189.808929 
	C257.452576,186.628281 253.050323,185.291992 250.121872,182.302139 
	C247.251190,179.371201 244.742844,177.836319 240.597351,178.970856 
	C238.597427,179.518188 236.299225,178.975525 233.741364,178.897095 
z"/>
<path fill="#000000" opacity="1.000000" stroke="none" 
	d="
M265.974792,204.383133 
	C269.387604,210.841614 266.151764,216.322525 264.122650,221.945801 
	C263.618073,223.344193 262.883759,224.893707 263.065399,226.266571 
	C264.024994,233.520370 261.084442,237.807220 253.943909,239.417343 
	C252.929169,239.646149 252.158691,240.846512 251.206863,241.497330 
	C250.257462,242.146500 249.050400,243.347000 248.251007,243.144165 
	C240.061081,241.066376 231.131119,245.620163 223.335312,240.347794 
	C222.065887,239.489273 220.802231,240.102249 219.494965,240.309830 
	C216.233139,240.827774 213.550598,240.119644 210.842987,237.740341 
	C208.065918,235.299988 204.302704,234.228302 201.202377,231.810135 
	C197.877182,229.216583 193.475052,228.153076 192.000626,223.408890 
	C191.761215,222.638550 190.123917,222.014984 189.049271,221.841888 
	C184.484589,221.106567 184.225540,218.974197 186.940247,215.999008 
	C182.193161,209.945358 176.980637,205.402893 168.856110,205.485336 
	C165.976700,205.514572 163.912735,205.760773 161.967239,208.211395 
	C155.057648,216.914993 151.512589,213.264160 147.989304,206.023315 
	C145.725281,201.370407 145.524216,196.001678 142.314728,191.410507 
	C139.631836,187.572632 142.144775,182.322784 146.370590,179.941986 
	C150.499786,177.615631 156.018829,177.971130 157.988449,181.857849 
	C160.952026,187.705917 166.180374,189.097794 171.476990,190.977310 
	C173.708344,191.769119 176.295013,192.287216 177.604431,195.036743 
	C175.186630,197.334473 172.575577,196.981750 170.160995,195.860306 
	C164.244583,193.112457 158.564774,193.801788 153.692657,197.657639 
	C149.999741,200.580307 153.375595,202.594864 155.983643,204.915512 
	C158.951340,199.582260 163.617203,200.778702 168.252258,201.253296 
	C172.658875,201.704468 177.110458,201.716553 181.606354,201.924667 
	C180.563568,191.158371 183.513596,188.552292 194.282883,190.221176 
	C196.666000,190.590485 198.256317,189.444229 199.103699,187.532288 
	C200.984390,183.288879 204.548019,183.046005 207.839401,184.484726 
	C211.211624,185.958786 213.723755,185.003403 216.162766,183.239609 
	C219.255219,181.003296 222.560150,180.558685 226.114868,181.266022 
	C230.450134,182.128677 234.701065,180.485062 239.022430,180.987854 
	C241.632858,181.291580 243.928635,181.499588 244.038284,185.112885 
	C244.117142,187.711716 246.396072,188.484177 248.683121,188.693054 
	C250.545288,188.863129 251.869949,190.033539 253.418335,190.787766 
	C259.415802,193.709167 260.617279,200.909592 265.974792,204.383133 
M150.794891,189.869751 
	C150.843185,191.522644 150.631729,193.460724 153.056305,193.465118 
	C154.331589,193.467422 155.104660,192.321976 155.395462,191.174225 
	C155.851868,189.372925 155.185852,187.656799 153.549850,186.984360 
	C151.831955,186.278259 151.484909,188.066330 150.794891,189.869751 
z"/>
</svg>