<svg version="1.1" id="Layer_1" xmlns="http://www.w3.org/2000/svg" xmlns:xlink="http://www.w3.org/1999/xlink" x="0px" y="0px"
	 width="100%" viewBox="0 0 448 384" enable-background="new 0 0 448 384" xml:space="preserve">
<path fill="#000000" opacity="1.000000" stroke="none" 
	d="
M166.244415,280.318848 
	C155.577560,279.248169 151.276123,271.536987 147.991364,263.463043 
	C144.614487,255.162674 141.698151,246.640182 139.375122,237.929047 
	C137.903564,232.410934 134.491882,227.737595 131.304565,223.054977 
	C127.712265,217.777435 124.526215,212.340439 123.730644,205.861145 
	C123.463562,203.685974 122.360245,202.190720 120.621124,200.999878 
	C118.973099,199.871384 117.440315,198.566376 115.751511,197.506927 
	C97.478767,186.043579 90.886757,167.985367 87.906555,147.972687 
	C87.051193,142.228760 92.982758,131.902145 98.277374,130.682556 
	C103.652618,129.444412 108.643501,132.061188 113.155876,134.852859 
	C115.673111,136.410202 117.636864,138.834457 120.051117,140.591797 
	C124.981194,144.180405 127.224541,143.544357 129.462280,137.982101 
	C131.647247,132.551025 134.854965,127.662086 137.444839,122.468613 
	C142.639069,112.052681 166.070557,111.787819 172.482300,120.430367 
	C174.939987,123.743134 177.749939,126.765724 181.504028,128.918442 
	C185.032623,130.941849 187.628616,130.422089 190.388412,127.718941 
	C194.430145,123.760178 198.410110,119.672943 202.858932,116.208740 
	C212.266312,108.883392 222.307205,106.080429 233.953613,111.713318 
	C242.346237,115.772491 246.708618,113.703140 251.242493,105.386375 
	C254.033173,100.267288 257.951447,96.718956 264.170776,96.544716 
	C264.992371,96.521698 265.800903,96.160065 266.625641,96.103935 
	C273.205414,95.656097 280.528412,93.728058 284.811584,100.699669 
	C289.261688,107.942993 291.784637,115.624199 286.866180,124.178070 
	C283.889557,129.354782 280.530426,134.296585 277.602051,139.169144 
	C278.034729,140.937576 279.283661,141.179855 280.323700,141.602936 
	C295.627930,147.828629 309.362335,156.364807 320.628754,168.632355 
	C323.901550,172.195923 327.792694,175.092117 331.745392,177.870209 
	C340.138763,183.769379 345.631378,191.897476 350.269775,200.892166 
	C353.890350,207.913132 359.793243,213.221863 365.510101,218.576248 
	C367.496765,220.436966 370.093811,222.083176 368.702545,225.678131 
	C364.626251,226.040115 362.238281,223.327057 360.307617,220.912933 
	C354.565643,213.733047 346.410431,209.583527 339.640533,203.720734 
	C337.647003,201.994293 335.142181,200.799637 332.469666,200.347321 
	C324.500183,198.998550 317.485352,195.549835 311.789703,189.960739 
	C302.047943,180.401245 290.254822,174.452728 277.776276,169.580017 
	C272.949066,167.695053 268.297882,165.458359 263.893524,162.760788 
	C259.011566,159.770737 254.692490,159.908218 249.477600,162.783920 
	C242.190506,166.802399 233.991913,169.089508 225.558289,167.828903 
	C220.157257,167.021576 215.776138,168.114548 211.536926,171.251892 
	C204.472870,176.479858 197.209274,181.091522 187.669540,178.862488 
	C185.742737,178.412262 183.788483,179.529221 182.174210,180.834869 
	C175.132629,186.530243 166.855453,186.616074 158.462296,185.902039 
	C156.711578,185.753098 154.674362,185.352066 154.527573,182.867081 
	C154.398911,180.689163 155.688965,179.475922 157.539291,178.776978 
	C159.561523,178.013077 161.584702,177.189896 163.678207,176.687164 
	C172.776138,174.502411 180.827316,170.384827 187.690155,164.000732 
	C192.617569,159.417038 199.027298,159.514297 205.045792,158.825851 
	C211.174210,158.124832 216.745926,156.490234 221.626114,152.659286 
	C231.246719,145.107132 241.889847,140.934311 254.422531,141.560715 
	C262.823334,141.980621 273.228180,132.728058 274.682465,124.537254 
	C275.355377,120.747574 271.209595,112.551544 267.650208,111.101028 
	C262.948608,109.185036 259.897034,112.287514 257.454193,115.392471 
	C252.566772,121.604607 247.026810,126.986534 240.544617,131.517258 
	C236.526917,134.325439 232.369843,134.984756 227.760681,133.818909 
	C226.308731,133.451645 224.785370,133.254959 223.417603,132.685181 
	C216.120026,129.645111 210.155777,131.856308 204.804764,137.084732 
	C200.415604,141.373352 196.250137,145.843124 190.167328,148.081680 
	C185.961441,149.629501 182.430023,149.505081 178.956558,146.768692 
	C177.388489,145.533371 175.837509,144.274445 174.236374,143.083267 
	C166.774567,137.532074 164.233810,137.935196 158.738678,145.471451 
	C156.448334,148.612503 155.186874,152.233444 153.827942,155.815613 
	C149.258835,167.859726 140.723694,170.006241 131.089645,161.482529 
	C127.349075,158.173065 123.845474,154.551498 119.468552,152.075775 
	C117.025208,150.693741 114.413368,149.462463 111.725166,148.700531 
	C108.862587,147.889175 106.773193,149.226608 106.440048,152.351074 
	C105.824516,158.123962 106.586166,163.572021 110.061043,168.517532 
	C120.187782,182.930130 133.095047,192.937271 150.695358,197.048752 
	C160.513809,199.342361 169.807251,203.813431 179.444138,206.977798 
	C186.426834,209.270660 193.602158,210.498520 201.005753,208.740936 
	C212.542526,206.002167 223.876419,208.112869 235.014633,210.903519 
	C255.697052,216.085419 277.020752,217.369064 297.829437,221.675522 
	C318.019684,225.854004 338.520325,227.862244 358.881378,230.849014 
	C362.807861,231.424973 366.703033,232.515533 370.471558,233.786865 
	C374.607880,235.182312 375.046112,238.447388 371.759583,241.351562 
	C371.510864,241.571350 371.252930,241.827866 370.952179,241.934631 
	C362.586365,244.904877 360.956604,251.925583 359.675323,259.609985 
	C357.406860,273.215210 354.392120,286.581696 358.124146,300.548340 
	C360.289185,308.650940 352.904633,314.997253 343.636658,314.163727 
	C321.253387,312.150604 299.336487,308.034821 277.410217,302.819214 
	C260.980377,298.911011 244.927902,293.199890 228.114304,290.945221 
	C220.378540,289.907837 212.578003,289.339020 204.799149,288.643707 
	C201.099213,288.312958 197.753448,286.852295 194.251160,285.842041 
	C185.236221,283.241577 176.063095,281.212799 166.244415,280.318848 
M333.824585,255.022568 
	C335.030609,251.813278 336.236603,248.603973 337.563812,245.072128 
	C328.089294,243.585510 319.055542,242.340866 310.090302,240.717819 
	C298.756775,238.666016 288.207886,233.845673 277.094910,230.970581 
	C274.886414,230.399200 273.079803,230.215530 271.052917,231.777740 
	C263.797791,237.369537 257.775909,236.346664 252.701279,228.453857 
	C250.813354,225.517502 248.371002,224.237106 245.255310,223.195862 
	C239.625763,221.314484 233.767105,221.428375 228.016113,220.703568 
	C220.168839,219.714554 212.448975,217.456970 204.322067,219.236908 
	C196.883453,220.866089 189.532654,219.448517 182.174469,217.595871 
	C178.292236,216.618393 174.351791,214.724030 170.081619,215.565475 
	C170.338028,221.869827 175.630554,225.694672 182.271805,224.474503 
	C185.211319,223.934433 188.174438,223.302917 190.974869,222.291977 
	C193.419800,221.409393 195.209152,221.732315 196.580353,223.874603 
	C197.929703,225.982712 197.366531,228.025757 196.062820,229.929260 
	C191.283249,236.907852 180.141891,239.488632 172.778427,235.157257 
	C165.312119,230.765350 159.716690,224.429718 157.538727,216.117020 
	C156.045700,210.418457 152.675690,209.927994 148.287308,209.858032 
	C146.907867,211.792603 147.529709,213.512543 147.943573,215.314407 
	C151.101639,229.063843 157.400314,241.538498 163.435226,254.140320 
	C164.806274,257.003265 166.621307,258.287506 169.702011,258.982880 
	C194.504349,264.581177 219.514297,269.098389 244.517532,273.657990 
	C253.587021,275.311951 262.659790,276.947937 271.770813,278.599335 
	C272.328979,272.050201 275.254639,268.987091 281.653320,267.400879 
	C284.214966,266.765839 286.508148,266.983063 287.690521,269.412323 
	C288.912079,271.922150 288.802948,274.604309 286.623962,276.798584 
	C285.551361,277.878693 283.448608,278.003723 283.412659,280.296570 
	C296.967377,283.257263 310.662598,284.721405 324.324341,286.390594 
	C326.483734,286.654419 328.520844,285.939117 329.154816,283.714050 
	C330.594818,278.660004 332.003113,273.556427 331.534393,268.391266 
	C329.623169,267.329010 328.136200,268.102203 326.791748,268.467621 
	C320.710297,270.120270 314.802002,269.389008 309.205475,266.946106 
	C303.047943,264.258301 296.567322,262.873596 290.134583,261.209167 
	C286.921631,260.377838 283.668976,259.528107 280.636963,258.217651 
	C277.582733,256.897552 275.457977,254.519867 275.742035,250.826584 
	C276.023926,247.161133 278.844360,245.962021 281.746368,244.977356 
	C289.892059,242.213470 297.739990,243.783676 304.842926,247.841492 
	C311.976562,251.916824 319.083710,254.940979 327.466125,253.660461 
	C329.585419,253.336731 331.177002,255.033417 333.824585,255.022568 
z"/>
<path fill="#000000" opacity="1.000000" stroke="none" 
	d="
M223.805450,232.430130 
	C227.564621,234.539627 230.778473,233.563141 234.159348,232.198547 
	C239.922562,229.872467 241.705856,231.103928 241.604218,237.157974 
	C241.572525,239.045059 242.548035,239.877029 243.920029,240.581558 
	C248.143021,242.750107 252.447784,243.877060 257.346527,243.009766 
	C264.079681,241.817673 266.567291,243.122726 267.264435,247.294312 
	C268.233490,253.092941 265.761749,256.680542 259.659180,258.077118 
	C257.397644,258.594666 255.069473,259.027588 252.761032,259.087341 
	C248.914276,259.186859 245.201752,258.578644 244.459991,264.260925 
	C244.115860,266.897278 240.997833,267.693756 238.306244,267.073090 
	C235.505814,266.427277 234.159073,264.420044 234.245880,261.566528 
	C234.362076,257.746185 234.666290,253.930130 234.722519,250.109772 
	C234.819077,243.548233 234.597549,243.378601 228.073151,243.375793 
	C219.949188,243.372284 213.924576,239.034348 212.520844,232.169189 
	C212.045380,229.843979 211.510101,227.255722 214.121475,226.010681 
	C216.426971,224.911484 218.196365,226.677917 219.740219,228.245789 
	C221.020828,229.546326 222.234680,230.912582 223.805450,232.430130 
z"/>
<path fill="#000000" opacity="1.000000" stroke="none" 
	d="
M188.745590,242.695038 
	C189.671494,242.770279 190.201675,242.733994 190.651657,242.906708 
	C193.914566,244.159225 197.627502,245.198914 197.034378,249.811508 
	C196.638611,252.889297 191.671585,255.136627 187.600143,254.409683 
	C183.555038,253.687454 179.978317,249.985718 180.495636,246.682510 
	C181.235275,241.959839 185.088806,242.824265 188.745590,242.695038 
z"/>
<path fill="#000000" opacity="1.000000" stroke="none" 
	d="
M216.512115,261.856873 
	C214.373306,261.280304 212.553680,261.053009 211.095169,259.813049 
	C208.160309,257.317963 208.512665,253.647324 212.152435,252.453583 
	C215.078781,251.493835 218.269547,251.113419 221.365372,250.974426 
	C223.548950,250.876389 225.664719,251.870285 226.142639,254.432373 
	C226.675720,257.290314 225.792877,259.690430 223.162247,261.157257 
	C221.220520,262.239899 219.086975,262.405823 216.512115,261.856873 
z"/>
</svg>