<svg version="1.1" id="Layer_1" xmlns="http://www.w3.org/2000/svg" xmlns:xlink="http://www.w3.org/1999/xlink" x="0px" y="0px"
	 width="100%" viewBox="0 0 560 560" enable-background="new 0 0 560 560" xml:space="preserve">
<path fill="#000000" opacity="1.000000" stroke="none" 
	d="
M195.219864,538.887939 
	C188.843033,536.279541 182.889069,533.636597 177.918076,529.327332 
	C171.936539,524.142151 172.462708,518.784729 178.852661,514.208069 
	C185.606567,509.370758 192.364639,504.603333 199.981842,501.178589 
	C207.662766,497.725159 215.688324,496.376282 224.097351,495.774078 
	C232.585373,495.166168 241.251740,494.492004 249.346054,491.440887 
	C256.684174,488.674835 258.158447,481.730927 259.107269,475.210968 
	C260.990295,462.271942 261.594116,449.181458 260.884369,436.117737 
	C260.337921,426.059113 257.763031,416.498779 251.978058,407.965454 
	C248.091248,402.232086 242.674057,398.913055 236.141556,397.481018 
	C217.890244,393.480072 201.220306,386.248352 188.221313,372.537903 
	C177.036514,360.740906 168.697769,346.971619 162.784607,331.717041 
	C159.409515,323.010101 156.443329,314.343018 155.457779,304.944061 
	C154.077606,291.781860 154.773438,278.718872 157.061310,265.828796 
	C160.290543,247.634949 166.211655,230.196472 173.790741,213.322449 
	C175.991730,208.422165 178.752762,203.890930 181.893127,199.593536 
	C189.502380,189.180771 194.555435,177.690857 195.292480,164.792404 
	C195.797485,155.954559 192.918243,147.579819 187.601608,140.535309 
	C182.839935,134.226120 178.060577,127.753319 170.939148,123.624184 
	C168.513107,122.217537 167.140076,119.731247 167.439606,116.856697 
	C167.726440,114.103920 170.114578,113.293030 172.386459,112.573692 
	C193.159042,105.996536 214.148239,100.185616 235.905045,98.151459 
	C254.599411,96.403603 273.405151,97.594421 292.158356,97.234566 
	C297.002686,97.141602 300.352509,95.769524 301.831238,91.295586 
	C303.700287,85.640671 306.241150,80.250191 307.622040,74.385834 
	C310.745605,61.120892 316.393768,49.807758 331.225433,46.055389 
	C335.460419,44.983955 339.268616,46.997890 343.531372,46.734886 
	C349.500275,46.366619 355.220032,44.731537 361.199249,44.498997 
	C373.236938,44.030834 385.243408,42.656422 397.248535,41.507431 
	C401.821991,41.069714 406.143738,39.310493 410.987457,40.008343 
	C415.842346,40.707802 417.898834,43.029083 418.472351,47.673683 
	C419.562347,56.500179 417.920868,59.132893 409.394653,60.205738 
	C398.373169,61.592560 387.249817,62.275837 376.289642,64.014374 
	C364.670380,65.857452 352.799469,65.485489 341.366547,67.766586 
	C335.700378,68.897110 329.555267,72.156227 327.230255,78.873474 
	C325.708557,83.269753 323.969971,87.607872 322.746918,92.086296 
	C321.235962,97.618980 322.147186,98.339676 327.714539,98.956581 
	C347.181702,101.113716 366.500854,104.078369 384.995422,110.923424 
	C386.555511,111.500809 388.103973,112.140312 389.585663,112.892990 
	C394.491821,115.385178 394.781982,118.757149 390.653259,122.555244 
	C380.736206,131.678223 370.881500,140.614716 366.949097,154.494431 
	C364.606628,162.762390 365.698639,170.284866 368.316864,177.800720 
	C371.818176,187.851410 377.281555,196.932388 383.371704,205.674057 
	C387.265259,211.262802 389.551056,217.735733 392.083923,224.038757 
	C402.193237,249.195969 408.480377,275.204742 405.816376,302.399109 
	C403.264679,328.447174 392.357422,350.882294 374.479950,370.443237 
	C361.057159,385.129974 344.559601,392.966919 325.941803,397.195618 
	C313.574005,400.004761 306.910706,407.902161 302.983582,419.072754 
	C298.927826,430.609070 299.019073,442.420868 299.925079,454.479645 
	C300.484833,461.929382 302.883240,469.117737 302.292053,476.720245 
	C301.486847,487.075714 308.973297,491.427887 316.584320,492.722290 
	C326.370361,494.386658 336.283051,495.292023 346.120087,496.674194 
	C361.932312,498.895935 374.559967,507.311371 386.071503,517.701416 
	C388.638428,520.018311 387.605438,524.656067 384.301575,527.883423 
	C377.562378,534.466431 368.995026,537.821472 360.504486,541.231934 
	C344.141327,547.804626 327.312439,552.882874 309.628235,553.907349 
	C295.242950,554.740784 280.807983,554.024658 266.395660,553.929077 
	C259.785461,553.885193 253.216080,553.875854 246.635818,553.265991 
	C237.350906,552.405396 228.377350,550.445984 219.517319,547.370911 
	C211.535416,544.600647 203.306030,542.538818 195.219864,538.887939 
M184.399048,225.912827 
	C183.378403,228.186356 182.292114,230.433029 181.348450,232.738083 
	C177.299210,242.629181 175.948883,253.224823 173.342926,263.494141 
	C171.504135,270.740326 170.983994,278.268494 171.562775,285.471558 
	C172.406281,295.969666 174.228912,306.379517 178.902451,316.287720 
	C185.255936,329.757568 194.692825,340.488251 206.116257,349.394836 
	C219.485321,359.818481 235.562683,364.304016 251.931488,367.643036 
	C266.497955,370.614410 281.110840,371.248932 295.957947,369.718750 
	C308.626923,368.413025 320.732758,364.936188 332.734314,361.244598 
	C348.262482,356.468201 360.116882,346.141327 370.684570,334.007355 
	C383.911865,318.819489 390.157776,301.245422 389.461060,281.343658 
	C389.014832,268.596710 388.087860,255.874374 384.119537,243.489243 
	C380.612915,232.545044 377.324432,221.617050 370.580780,212.121979 
	C367.368927,207.599701 365.076904,207.166367 360.620239,210.148941 
	C358.267212,211.723694 355.791321,213.144241 353.582642,214.900635 
	C332.704315,231.503586 308.950928,234.690125 283.483276,230.112625 
	C273.947845,228.398758 273.570404,228.678314 270.359497,237.903458 
	C267.357605,246.528214 264.368164,255.157745 261.290466,263.755554 
	C256.925140,275.950470 252.406860,288.091034 248.095566,300.304810 
	C243.173752,314.248138 238.451233,328.261780 233.541321,342.209381 
	C232.370239,345.536102 230.891998,349.270813 226.623138,349.061035 
	C222.034378,348.835510 217.290268,348.241119 214.163391,343.962952 
	C212.858688,342.177887 212.322510,340.308868 213.328674,338.367157 
	C217.265823,330.769226 218.834946,322.358063 221.671692,314.383362 
	C231.585876,286.512177 241.296524,258.568481 251.041122,230.637238 
	C252.661118,225.993744 251.682068,224.290680 246.745911,223.302887 
	C241.561249,222.265381 236.312485,221.552948 231.111771,220.590179 
	C220.149597,218.560822 209.172684,216.820267 197.957031,217.157547 
	C191.926147,217.338928 187.372040,219.680298 184.399048,225.912827 
M198.819855,116.307793 
	C196.610916,117.083611 193.782104,116.847542 192.756409,119.856117 
	C194.589828,121.743118 196.746765,122.440590 199.094894,122.643570 
	C215.487778,124.060707 231.649277,127.514000 248.097061,128.360260 
	C257.538269,128.846008 266.967957,130.317093 276.351166,130.291595 
	C291.542450,130.250275 306.772278,129.756454 321.928558,128.106583 
	C334.623749,126.724625 347.370117,125.817200 360.074371,124.510712 
	C363.336273,124.175270 366.541901,123.192833 369.737640,122.368889 
	C370.832214,122.086678 372.062164,121.522125 372.221985,120.188034 
	C372.415192,118.575600 371.132843,117.871521 369.920624,117.289520 
	C369.028046,116.860977 368.066498,116.567711 367.121033,116.259010 
	C355.633392,112.508217 343.646240,112.057838 331.762054,111.122383 
	C317.855927,110.027779 303.917389,109.345856 289.994354,108.462616 
	C286.358612,108.231972 282.651093,107.307747 279.109192,107.754227 
	C267.081848,109.270378 254.965271,108.784782 242.908417,109.879944 
	C228.333771,111.203789 213.839890,112.680740 198.819855,116.307793 
M233.134750,505.237762 
	C227.380371,506.121735 221.594131,506.839233 215.879822,507.932587 
	C209.013550,509.246368 203.416306,513.358154 197.835938,517.182434 
	C193.914551,519.869751 194.310455,522.494873 198.476425,524.733215 
	C202.722015,527.014343 206.706543,529.734863 211.241837,531.542786 
	C236.630920,541.663940 263.094543,542.328857 289.832794,540.710022 
	C290.102203,540.693726 290.338409,540.128601 290.795593,539.567505 
	C279.597992,536.787659 268.394775,537.530212 257.387665,536.370483 
	C247.452103,535.323669 237.579071,534.399475 228.184036,530.722961 
	C224.206024,529.166321 220.866653,526.788391 218.509476,523.202148 
	C215.730042,518.973389 216.781433,514.728210 221.297485,512.291138 
	C224.837936,510.380524 228.806290,509.679810 232.663651,508.660370 
	C234.904251,508.068176 237.597214,508.238556 239.249496,505.855438 
	C237.471558,504.032898 235.677322,504.708984 233.134750,505.237762 
z"/>
<path fill="#000000" opacity="1.000000" stroke="none" 
	d="
M275.893372,316.069824 
	C272.051361,311.052612 268.455811,306.296478 264.761047,301.618713 
	C258.613892,293.836090 258.963684,286.916779 266.212494,280.324127 
	C271.946533,275.109100 278.684235,271.183655 284.709961,266.282318 
	C290.774994,261.349030 296.402496,255.958603 302.308075,250.874191 
	C306.288177,247.447556 310.281006,245.504532 315.711365,245.516739 
	C323.362396,245.533951 330.492767,247.447891 337.614319,249.752899 
	C338.350494,249.991180 339.370758,250.489304 339.565521,251.091309 
	C342.266602,259.439667 350.110626,263.723633 354.785126,270.504425 
	C359.474945,277.307526 364.679169,283.704010 370.104279,289.955627 
	C372.452087,292.661102 374.630951,295.396301 377.304016,297.867279 
	C381.129791,301.403839 380.625183,307.909454 376.561554,312.192627 
	C372.556030,316.414612 368.506592,320.659943 364.033813,324.359985 
	C354.732971,332.054016 346.404541,340.869385 336.597565,347.969910 
	C333.619507,350.126160 330.864258,352.980225 327.123871,349.110413 
	C326.087036,348.037720 324.723053,348.260590 323.491943,349.192291 
	C322.577667,349.884186 321.633057,350.692444 320.570892,351.008392 
	C309.898285,354.183014 294.592712,346.507050 289.583313,336.643341 
	C285.927002,329.444031 281.305695,322.651306 275.893372,316.069824 
M360.172668,315.542969 
	C363.247223,314.631195 364.682465,311.767456 366.940948,309.885101 
	C372.816345,304.988190 372.817322,304.166992 367.781769,298.228729 
	C360.523590,289.669342 351.757141,282.346863 346.482544,272.135437 
	C345.687531,270.596283 344.011108,269.472260 342.629028,268.288605 
	C341.426300,267.258545 339.901184,267.361847 339.133606,268.650482 
	C337.405060,271.552429 334.417297,273.769745 333.893219,277.471313 
	C334.557922,277.782990 334.992218,278.165802 335.423676,278.162689 
	C345.783813,278.087616 346.724792,278.717896 350.848633,288.432312 
	C352.359650,291.991791 354.015869,295.359131 358.170410,296.701111 
	C361.354279,297.729553 364.789215,299.133423 365.305969,302.869293 
	C365.861420,306.884705 363.224945,309.659882 360.098206,311.861267 
	C358.739380,312.817932 357.399536,313.805389 356.002380,314.703125 
	C350.000336,318.559723 346.263275,324.156311 344.047943,331.047394 
	C349.234924,326.025970 354.421875,321.004547 360.172668,315.542969 
M297.814301,290.368225 
	C296.264862,291.212036 294.301788,291.562012 293.738251,294.013885 
	C295.603119,296.028687 296.524780,299.073425 299.962891,301.113251 
	C299.677673,296.336456 299.503693,292.198425 302.440338,288.610474 
	C301.109558,289.121490 299.778778,289.632538 297.814301,290.368225 
z"/>
</svg>