<?xml version="1.0" encoding="utf-8"?><!-- Uploaded to: SVG Repo, www.svgrepo.com, Generator: SVG Repo Mixer Tools -->
<svg width="800px" height="800px" viewBox="0 0 400 400" fill="none" xmlns="http://www.w3.org/2000/svg">
<path d="M209 36C223.163 63.2905 256.999 65.6699 247.269 103" stroke="#000000" stroke-opacity="0.9" stroke-width="16" stroke-linecap="round" stroke-linejoin="round"/>
<path d="M209.265 37C210.583 47.6285 200.458 51.9336 193.268 58.0007C172.316 75.6891 201.785 103.827 217.261 110.94C247.234 124.714 273.178 121.202 259.028 163" stroke="#000000" stroke-opacity="0.9" stroke-width="16" stroke-linecap="round" stroke-linejoin="round"/>
<path d="M181.571 80C161.373 85.014 141.805 100.673 145.709 124.051C153.632 171.449 290.945 144.578 265.968 188.167C240.055 233.399 89.7713 200.73 143.525 131.033" stroke="#000000" stroke-opacity="0.9" stroke-width="16" stroke-linecap="round" stroke-linejoin="round"/>
<path d="M145 192C159.48 254.021 178.667 311.354 202.559 364C216.007 321.835 224.876 293.168 229.167 278C242.038 232.494 246 209.87 246 205.467" stroke="#000000" stroke-opacity="0.9" stroke-width="16" stroke-linecap="round" stroke-linejoin="round"/>
<path d="M193.15 260.662C235.806 222.266 197.234 344.886 192 263.44" stroke="#000000" stroke-opacity="0.9" stroke-width="12" stroke-linecap="round" stroke-linejoin="round"/>
<path d="M215 228C215.991 225.392 216.335 222.665 217 220" stroke="#000000" stroke-opacity="0.9" stroke-width="12" stroke-linecap="round" stroke-linejoin="round"/>
<path d="M193 228C193.984 225.475 193.674 222.719 194 220" stroke="#000000" stroke-opacity="0.9" stroke-width="12" stroke-linecap="round" stroke-linejoin="round"/>
</svg>