<svg version="1.1" id="Layer_1" xmlns="http://www.w3.org/2000/svg" xmlns:xlink="http://www.w3.org/1999/xlink" x="0px" y="0px"
	 width="100%" viewBox="0 0 608 432" enable-background="new 0 0 608 432" xml:space="preserve">
<path fill="#000000" opacity="1.000000" stroke="none" 
	d="
M277.995453,310.984680 
	C282.102448,311.364624 282.829681,314.269257 282.306305,317.466187 
	C280.336060,329.501465 275.600586,340.295654 265.701355,347.816223 
	C260.584625,351.703400 256.330078,356.258026 252.200806,360.999847 
	C250.543259,362.903290 248.912949,363.954163 246.655411,362.985229 
	C244.064240,361.873169 246.007523,359.938110 246.099014,358.278595 
	C246.418121,352.490906 246.692871,346.692535 246.688110,340.898468 
	C246.685440,337.658325 243.793930,337.804840 241.560760,337.368317 
	C234.713013,336.029938 227.855484,334.738708 221.023590,333.323730 
	C218.721344,332.846863 216.172729,332.111115 215.931915,329.307709 
	C215.686996,326.456512 217.802612,324.782837 220.159027,323.694763 
	C224.727448,321.585236 229.697845,320.819916 234.540527,319.632996 
	C240.688934,318.126068 246.813293,316.560822 252.468246,313.568451 
	C255.576950,311.923462 256.417938,309.691895 254.606812,306.600281 
	C253.090195,304.011475 251.702530,301.417694 251.276352,298.339935 
	C251.051071,296.712952 250.084854,295.083496 248.444214,294.419952 
	C245.257553,293.131073 242.829117,290.940430 240.511597,288.516022 
	C238.925323,286.856567 236.856918,286.410431 234.588852,286.342316 
	C229.000916,286.174683 223.750946,287.714294 219.230759,291.145874 
	C215.324707,294.111206 211.416916,295.413391 206.259903,293.868896 
	C200.405960,292.115570 194.220001,291.368408 188.130585,290.531616 
	C181.639069,289.639557 177.259949,285.832733 173.720703,280.803772 
	C171.826553,278.112335 171.854095,275.148834 172.317169,271.776672 
	C173.116089,265.958923 177.255997,260.950531 176.048645,254.652130 
	C175.712479,252.898483 177.612335,251.730667 179.471313,251.791458 
	C181.960724,251.872879 183.174393,250.359070 184.779160,248.763519 
	C190.679474,242.897049 196.899734,237.368729 205.511917,235.754578 
	C205.675156,235.723984 205.900955,235.782990 206.000610,235.692902 
	C209.475662,232.552277 212.731125,230.185989 215.901413,236.254471 
	C216.467941,237.338913 218.120239,235.648636 219.075409,234.728775 
	C223.308548,230.652237 226.231995,230.430222 230.799820,234.264191 
	C234.877716,237.686951 238.505630,241.701889 244.582214,241.243851 
	C245.551880,241.170761 247.053329,241.990402 247.552582,242.841156 
	C250.734909,248.264191 255.620224,252.366394 258.922699,257.627808 
	C260.642731,260.368164 262.093506,263.038971 265.469513,264.086365 
	C265.701660,263.811157 266.121918,263.487823 266.068176,263.351868 
	C260.793304,250.004776 257.920563,235.834061 248.119049,224.215698 
	C237.900192,212.102631 230.361694,198.035400 227.134613,182.156189 
	C224.619293,169.779373 233.562393,154.820297 245.358261,151.678589 
	C248.776306,150.768234 248.212326,147.941574 248.613098,145.701859 
	C251.169693,131.414276 254.224289,117.304657 261.137817,104.330002 
	C265.071777,96.947021 269.617340,89.987419 274.993256,83.586861 
	C280.369843,77.185524 283.985931,76.433540 290.827698,81.432655 
	C321.161377,103.596817 342.135010,131.902023 348.331665,169.856491 
	C351.705170,190.519135 352.599854,211.272507 350.274658,232.034622 
	C348.104828,251.409714 343.081177,270.254730 337.963776,289.039398 
	C336.521637,294.333099 335.184082,299.656616 333.658875,304.925995 
	C332.247650,309.801514 334.721680,313.420227 337.572296,316.694672 
	C343.044098,322.980072 348.675507,329.115295 353.092896,336.233307 
	C361.032776,349.027252 367.062286,362.734772 372.488708,376.730865 
	C373.022980,378.108856 373.743805,379.503265 372.634186,381.324066 
	C369.593170,381.199646 367.838623,378.796753 366.008423,376.872345 
	C356.164246,366.521698 349.318085,354.050720 341.771210,342.085968 
	C336.972992,334.478882 332.452515,326.696259 327.633636,319.102661 
	C323.269745,312.226044 322.230774,304.876312 324.061615,297.087372 
	C329.810089,272.631439 334.035065,247.891190 336.397919,222.911346 
	C337.880463,207.237686 339.537048,191.415863 336.065308,175.675995 
	C335.301361,172.212479 334.160004,170.502243 330.413055,171.801956 
	C328.164429,172.581924 325.796692,172.296906 323.468872,172.106094 
	C319.233307,171.758942 315.163147,172.364105 311.307983,174.203934 
	C298.389099,180.369431 284.785095,181.376785 270.805206,179.618042 
	C269.486633,179.452148 268.150055,179.392990 266.819977,179.360336 
	C256.679535,179.111404 255.601776,179.936279 258.559967,189.560349 
	C263.089508,204.296692 264.071259,219.601913 266.801117,234.616852 
	C268.676971,244.934525 273.847015,253.595367 279.174774,262.217590 
	C286.090302,273.409363 293.034058,284.610779 301.631073,294.644012 
	C309.348816,303.651123 307.298035,313.562164 304.275848,323.481415 
	C299.661102,338.627563 297.195679,354.216217 294.379913,369.739868 
	C293.585846,374.117645 295.137726,375.703430 299.638489,375.685547 
	C313.385101,375.630951 313.351654,375.763458 313.895752,362.029449 
	C314.126343,356.208893 314.519928,350.394470 314.887299,344.580322 
	C314.914368,344.151917 315.330505,343.748108 315.711365,343.075928 
	C320.062805,344.057159 322.761322,346.041290 322.458221,351.098969 
	C322.080566,357.401428 320.996216,363.644592 321.263031,370.014130 
	C321.407715,373.467987 322.638245,374.781525 326.033173,374.699890 
	C335.997406,374.460388 338.579681,376.197235 334.983032,364.596375 
	C334.015198,361.474640 333.993469,358.032104 333.760529,354.721100 
	C333.635498,352.944214 333.545898,350.621185 335.872070,350.245209 
	C338.298645,349.852966 339.360443,351.999268 339.928986,353.914398 
	C341.253937,358.377289 342.515594,362.874115 343.473267,367.426575 
	C344.417664,371.915741 346.118317,375.213776 351.422974,375.232971 
	C352.669250,375.237488 353.941498,376.031006 355.148346,376.579285 
	C356.230164,377.070740 357.251221,377.787872 357.190918,379.150299 
	C357.126740,380.599091 355.912109,381.108063 354.773102,381.255066 
	C349.463593,381.940247 347.592255,384.514496 349.823669,389.644592 
	C350.285126,390.705536 350.482300,391.978027 349.415710,392.882751 
	C348.208588,393.906677 346.859222,393.437134 345.656494,392.869843 
	C343.320435,391.768066 341.485626,390.081329 340.574524,387.609009 
	C339.546143,384.818298 337.567474,384.034576 334.717743,384.090790 
	C331.912384,384.146149 329.099335,383.599762 326.283691,383.403290 
	C323.148834,383.184540 320.023743,382.607269 318.191193,386.474579 
	C317.142151,388.688385 314.936218,388.557159 314.164825,386.175720 
	C313.193573,383.177307 311.127563,383.068237 308.707886,383.084595 
	C305.875214,383.103760 303.033691,383.205444 300.211182,383.029022 
	C295.717773,382.748169 291.602448,382.642761 290.013458,388.297729 
	C289.495667,390.140411 287.519501,391.476013 285.215942,391.188721 
	C282.670990,390.871338 282.053833,388.740112 281.961273,386.782562 
	C281.814972,383.687775 280.415009,382.434082 277.434326,381.991119 
	C275.652283,381.726288 272.957397,381.519226 273.146393,378.775116 
	C273.310303,376.394806 275.784698,376.304779 277.457397,376.240631 
	C281.331421,376.092041 282.802429,374.066650 283.679504,370.519440 
	C287.990387,353.084229 290.890961,335.364624 294.538239,317.797150 
	C295.196686,314.625793 294.634399,311.695068 292.770172,308.774628 
	C287.687195,300.811890 282.935303,292.637817 277.515747,283.658600 
	C277.628998,287.888550 278.792755,290.758331 279.637878,293.739807 
	C280.700562,297.488770 282.241730,301.301208 279.092346,305.111389 
	C278.103943,306.307159 278.445587,308.602325 277.737366,310.745331 
	C274.919556,311.668701 273.877533,308.530212 271.579132,308.919830 
	C267.147583,318.109009 266.758942,318.308563 261.111053,313.747498 
	C258.574707,321.181152 252.222107,322.201202 245.679550,323.337128 
	C241.149963,324.123566 236.818253,325.887390 231.991562,329.056183 
	C238.305328,330.591614 243.149261,329.089539 248.012451,328.557678 
	C253.754364,327.929718 254.317322,328.285950 254.294891,334.110046 
	C254.284027,336.930817 253.947754,339.753845 254.010651,342.570190 
	C254.051620,344.405548 253.225983,346.565887 255.472198,348.162476 
	C259.684753,344.948761 262.344940,340.550629 264.785004,336.079742 
	C269.313232,327.782776 273.605133,319.356903 277.995453,310.984680 
M260.591827,160.102661 
	C259.305206,164.568329 260.426727,167.827713 265.431793,168.442535 
	C275.314575,169.656525 285.232819,171.492844 295.192291,170.439743 
	C301.806274,169.740356 309.064148,171.102966 314.751190,166.065750 
	C317.982544,163.203598 321.659515,161.851852 326.018494,161.441574 
	C332.477997,160.833588 333.800018,158.573120 331.729584,152.429581 
	C327.896454,141.055618 323.174896,130.019119 316.860840,119.817856 
	C311.519531,111.188156 305.320892,103.135490 296.899231,97.107430 
	C293.235992,94.485352 290.151733,94.761971 287.518433,98.515099 
	C285.800171,100.964104 284.001190,103.361458 282.384155,105.875710 
	C271.809357,122.318138 266.224304,140.778305 260.591827,160.102661 
M246.429962,203.376709 
	C247.644257,203.851135 247.965286,203.006180 247.907303,202.160721 
	C247.142593,191.011536 246.327377,179.865829 245.459381,167.810486 
	C242.377335,171.840576 240.374664,175.354385 239.349319,179.409714 
	C237.041718,188.536285 241.195633,195.834595 246.429962,203.376709 
M184.426254,261.533478 
	C183.271332,266.995270 180.159958,272.280640 183.042923,278.161285 
	C185.659714,272.885101 187.538559,267.500061 186.175385,261.503784 
	C186.125824,261.285706 185.346130,261.233673 184.426254,261.533478 
M203.206177,280.576965 
	C201.705399,281.328888 199.469818,280.731934 198.735229,282.941132 
	C202.468765,286.099976 207.151886,285.490784 210.602432,281.408539 
	C208.585632,279.711487 206.220016,280.502655 203.206177,280.576965 
M268.040527,288.530579 
	C266.301483,286.444855 264.470551,286.997223 262.606232,288.031708 
	C262.349091,290.204529 263.072113,291.781067 264.843903,292.126312 
	C266.828186,292.512970 267.624908,290.854218 268.040527,288.530579 
z"/>
<path fill="#000000" opacity="1.000000" stroke="none" 
	d="
M406.957886,266.231873 
	C402.274689,262.067444 398.459869,262.120453 393.106476,265.433624 
	C389.282990,267.799957 385.096252,268.931732 383.367310,273.667053 
	C382.950470,274.808777 381.809326,275.909943 380.718201,276.538147 
	C377.856171,278.185913 377.019073,280.565460 377.331299,283.674164 
	C377.549255,285.843994 377.065216,287.932129 376.396851,290.034546 
	C374.987915,294.466522 376.716461,297.281586 381.336945,297.582642 
	C387.976074,298.015259 394.634766,298.004089 401.274261,297.180847 
	C406.222839,296.567291 411.232025,295.937805 416.095276,297.608307 
	C418.101929,298.297577 420.421265,299.128326 420.509064,301.776031 
	C420.588409,304.169312 418.517487,305.141174 416.745728,305.988922 
	C409.396515,309.505493 402.089447,313.141357 394.569183,316.255951 
	C390.871033,317.787537 390.216766,319.341370 391.945587,322.923889 
	C394.264893,327.730103 395.285187,333.039093 395.985107,338.307739 
	C396.303253,340.702332 396.787323,342.806122 398.218262,344.750702 
	C398.899048,345.675873 399.442352,346.882111 398.325226,347.907684 
	C397.213745,348.928101 396.123474,348.207855 395.151703,347.578094 
	C381.655579,338.832275 368.418579,329.855804 363.098145,313.409912 
	C362.218567,310.691071 361.030762,307.997498 361.995209,305.170776 
	C363.029755,302.138489 361.555969,300.147705 360.141052,298.186401 
	C358.465515,297.946442 358.119537,299.043396 357.582184,299.823578 
	C355.756500,302.474152 354.784698,302.140442 352.427338,299.704010 
	C344.118652,291.116730 347.507751,281.634491 348.830475,271.915558 
	C349.349548,268.101929 348.697388,264.120789 349.639893,260.084320 
	C350.302521,257.246185 351.227661,255.305664 353.437103,253.546005 
	C359.324707,248.856857 359.583649,242.799210 354.251129,237.296295 
	C352.566986,235.558304 350.650238,233.740097 352.347626,231.290619 
	C354.020447,228.876572 356.680420,228.885147 359.039978,230.368393 
	C362.130524,232.311172 364.297119,231.509262 366.169556,228.655273 
	C367.493774,226.636871 369.422241,225.384644 371.737640,224.660675 
	C372.839264,224.316223 374.198517,224.016891 374.875732,223.217941 
	C379.951782,217.229172 386.609711,215.469925 394.084015,215.592606 
	C395.734680,215.619690 397.075470,214.629532 397.521606,213.118896 
	C398.738129,208.999405 401.808167,208.527786 405.382751,208.671921 
	C414.797638,209.051544 423.858276,210.634491 431.771027,216.225067 
	C433.053375,217.131104 434.288849,217.620178 435.941589,217.124817 
	C439.874268,215.946136 441.844788,218.104477 441.882568,221.639435 
	C441.959045,228.795944 444.611237,234.902725 448.546875,240.638535 
	C450.602417,243.634369 449.955658,246.066360 447.986694,249.217285 
	C443.219604,256.846100 435.218872,258.979980 427.885437,262.312592 
	C424.706879,263.757050 421.356476,264.810486 418.572235,267.026947 
	C414.626038,270.168396 411.007965,267.547516 406.957886,266.231873 
M367.831604,304.962341 
	C366.768829,305.557983 366.487640,306.451935 367.115936,307.457306 
	C372.692291,316.379822 377.772888,325.684052 386.915558,333.673096 
	C384.814880,327.377930 383.124634,322.393982 381.489532,317.391998 
	C379.488159,311.269592 380.207611,310.029602 386.401276,309.042053 
	C388.033936,308.781769 389.740875,308.953918 391.358856,308.642548 
	C394.373688,308.062286 397.607941,307.977753 400.332794,306.109711 
	C390.421997,301.271484 380.175476,307.770294 370.604218,303.605865 
	C370.125641,303.397614 369.167694,304.291107 367.831604,304.962341 
M428.859192,236.995377 
	C425.119904,238.461472 420.376190,237.539368 417.716248,241.659775 
	C423.032776,241.925858 427.764069,240.382660 432.308777,237.928696 
	C431.478638,235.963593 430.448364,236.564789 428.859192,236.995377 
z"/>
<path fill="#000000" opacity="1.000000" stroke="none" 
	d="
M299.631714,251.820038 
	C290.571320,244.512466 287.200531,234.341629 283.843262,224.247665 
	C282.275513,219.534058 281.176025,214.622299 281.648712,209.541855 
	C281.756378,208.384918 281.682953,207.179230 281.989990,206.078903 
	C282.817596,203.113098 283.817657,200.022034 287.831451,200.633194 
	C291.759308,201.231262 292.439056,204.651718 291.945221,207.519897 
	C291.102692,212.412964 291.769745,217.115280 292.293640,221.892334 
	C292.805847,226.562744 294.153351,230.996216 296.066101,235.267563 
	C296.826904,236.966476 297.661957,238.675339 299.901520,238.668839 
	C302.022186,238.662674 303.254303,237.191452 304.077667,235.544983 
	C307.494873,228.711670 308.091919,221.246628 308.645599,213.802536 
	C308.988251,209.195633 307.987915,204.485184 309.945831,200.007446 
	C311.446625,196.575226 313.579529,193.763489 317.619232,193.951935 
	C321.738434,194.144089 324.172028,196.842743 325.300903,200.713623 
	C325.626190,201.828979 326.055145,202.973679 326.071655,204.110229 
	C326.233521,215.244980 326.359039,226.398285 323.214783,237.233093 
	C321.798035,242.115112 319.203766,246.384583 315.237061,249.656113 
	C310.647278,253.441513 305.586945,254.687180 299.631714,251.820038 
z"/>
<path fill="#000000" opacity="1.000000" stroke="none" 
	d="
M301.006958,125.106796 
	C302.631744,127.525780 303.429443,129.879852 304.022766,132.304901 
	C304.750122,135.277847 303.977325,137.880417 301.935181,140.130569 
	C298.092133,144.365112 292.690613,144.414169 286.124023,140.272614 
	C281.533630,137.377426 280.435944,133.948730 282.442413,128.772873 
	C284.630585,123.128128 290.092072,119.733498 295.299072,120.762566 
	C297.764923,121.249893 299.313049,122.959145 301.006958,125.106796 
z"/>
</svg>